<?xml version="1.0" encoding="utf-8"?>
<!-- Generator: Adobe Illustrator 23.0.0, SVG Export Plug-In . SVG Version: 6.00 Build 0)  -->
<svg version="1.1" id="Layer_1" xmlns="http://www.w3.org/2000/svg" xmlns:xlink="http://www.w3.org/1999/xlink" x="0px" y="0px"
	 viewBox="0 0 30 30" style="enable-background:new 0 0 30 30;" xml:space="preserve">
<style type="text/css">
	.st0{fill:#DDDDDD;}
</style>
<path class="st0" d="M21.5,10h-13c-0.27,0-0.48,0.22-0.45,0.47l1.77,15.07c0.1,0.83,0.84,1.46,1.73,1.46h6.89
	c0.89,0,1.63-0.63,1.73-1.46l1.77-15.07C21.97,10.22,21.77,10,21.5,10z M12.33,23.56c0,0.34-0.29,0.61-0.65,0.61h-0.04
	c-0.36,0-0.65-0.27-0.65-0.61L10,12.5c0-0.34,0.29-0.61,0.65-0.61h0.04c0.36,0,0.65,0.27,0.65,0.61L12.33,23.56z M16.33,23.56
	c0,0.34-0.29,0.61-0.65,0.61h-1.37c-0.36,0-0.65-0.27-0.65-0.61V12.5c0-0.34,0.29-0.61,0.65-0.61h1.37c0.36,0,0.65,0.27,0.65,0.61
	V23.56z M19,23.56c0,0.34-0.29,0.61-0.65,0.61h-0.04c-0.36,0-0.65-0.27-0.65-0.61l1-11.06c0-0.34,0.29-0.61,0.65-0.61h0.04
	c0.36,0,0.65,0.27,0.65,0.61L19,23.56z"/>
<path class="st0" d="M22.55,6.14h-4.13V5.65c0-0.36-0.29-0.65-0.65-0.65h-1.63h-2.29h-1.63c-0.36,0-0.65,0.29-0.65,0.65v0.49H7.45
	C7.2,6.14,7,6.34,7,6.59v1.39c0,0.25,0.2,0.45,0.45,0.45h4.78h5.55h4.78c0.25,0,0.45-0.2,0.45-0.45V6.59
	C23,6.34,22.8,6.14,22.55,6.14z"/>
</svg>
