<?xml version="1.0" encoding="utf-8"?>
<!-- Generator: Adobe Illustrator 23.0.0, SVG Export Plug-In . SVG Version: 6.00 Build 0)  -->
<svg version="1.1" id="Layer_1" xmlns="http://www.w3.org/2000/svg" xmlns:xlink="http://www.w3.org/1999/xlink" x="0px" y="0px"
	 viewBox="0 0 30 30" style="enable-background:new 0 0 30 30;" xml:space="preserve">
<style type="text/css">
	.st0{fill:#DDDDDD;}
</style>
<g>
	<path class="st0" d="M22.5,21.08c0,1.43-1.16,2.59-2.59,2.59h-10c-1.43,0-2.59-1.16-2.59-2.59v-10c0-1.43,1.16-2.59,2.59-2.59h6.89
		c0.09,0,0.18-0.04,0.23-0.12l1.31-1.75c0.15-0.19,0.01-0.47-0.23-0.47H7.59C6.16,6.16,5,7.32,5,8.75v14.66C5,24.84,6.16,26,7.59,26
		h14.66c1.43,0,2.59-1.16,2.59-2.59v-11.7c0-0.28-0.36-0.4-0.53-0.18l-1.75,2.33c-0.04,0.05-0.06,0.11-0.06,0.18V21.08z"/>
</g>
<path class="st0" d="M13.06,16.29l3.66,2.74c0.45,0.34,0.31,1.04-0.24,1.18l-3.66,0.91c-0.42,0.1-0.83-0.21-0.83-0.64v-3.66
	C12,16.28,12.63,15.97,13.06,16.29z"/>
<g>
	<rect x="13.86" y="9.87" transform="matrix(0.6 -0.8 0.8 0.6 -2.8094 19.9595)" class="st0" width="9.4" height="5.83"/>
	<path class="st0" d="M24.96,7.42l-3.05-2.29c-0.45-0.33-1.08-0.24-1.41,0.2l-0.86,1.14l4.67,3.5l0.86-1.14
		C25.5,8.39,25.41,7.76,24.96,7.42z"/>
</g>
</svg>
